<svg xmlns="http://www.w3.org/2000/svg" width="353" height="353" viewBox="0 0 353 353" version="1.1"><path d="M 117.033 89.601 C 105.929 92.585, 93.186 103.935, 88.835 114.715 L 86.500 120.500 86.500 176 L 86.500 231.500 89.287 237.451 C 90.819 240.724, 92.844 244.244, 93.787 245.272 C 98.930 250.888, 103.642 255.066, 105.452 255.615 C 106.579 255.957, 108.194 256.844, 109.043 257.586 C 109.892 258.328, 113.492 259.668, 117.043 260.565 C 120.594 261.461, 123.889 262.562, 124.365 263.012 C 124.841 263.462, 125.156 269.174, 125.066 275.706 C 124.882 289.061, 125.261 290.768, 128.693 292.073 C 131.665 293.203, 135.239 291.521, 139.500 286.985 C 141.150 285.229, 147.969 278.888, 154.654 272.896 L 166.808 262 202.694 262 C 241.675 262, 245.785 261.555, 254.629 256.371 C 261.442 252.379, 268.011 245.192, 271.418 238.003 L 274.500 231.500 274.807 179 C 275.129 124.081, 274.800 118.448, 270.813 110.633 C 265.951 101.103, 254.780 92.480, 243.485 89.538 C 234.934 87.311, 125.352 87.365, 117.033 89.601 M 174.061 118.136 C 161.751 120.177, 150.278 129.294, 146.156 140.313 C 142.434 150.261, 143.023 150.961, 155.133 150.986 L 161.765 151 164.408 145.598 C 167.362 139.562, 169.795 137.582, 176.450 135.802 C 186.957 132.992, 198 140.259, 198 149.982 C 198 155.643, 195.153 159.986, 184.694 170.281 C 175.108 179.716, 174.185 180.965, 172.656 186.566 C 171.745 189.902, 171 193.839, 171 195.316 L 171 198 180.531 198 C 190.851 198, 190.379 198.280, 191.513 191.507 C 192.180 187.525, 193.808 185.611, 206.341 174.082 C 208.385 172.201, 211.670 167.399, 213.642 163.410 C 216.959 156.698, 217.198 155.611, 216.842 148.829 C 216.579 143.833, 215.722 139.995, 214.149 136.771 C 207.566 123.279, 190.603 115.394, 174.061 118.136 M 173.111 215.560 C 167.431 220.340, 168.096 229.258, 174.420 233.115 C 182.346 237.948, 192 232.365, 192 222.950 C 192 220.701, 191.027 218.827, 188.600 216.400 C 184.144 211.944, 177.817 211.601, 173.111 215.560" stroke="none" fill="#98827b" fill-rule="evenodd"/><path d="M 169.500 21.578 C 167.850 21.810, 162.250 22.493, 157.055 23.096 C 151.860 23.700, 142.988 25.519, 137.338 27.138 C 86.938 41.586, 52.589 77.525, 43.125 125.712 L 41.399 134.500 32.757 135.022 C 25.405 135.466, 23.730 135.905, 21.540 137.962 C 17.168 142.069, 16.860 145.204, 17.190 182.178 C 17.488 215.533, 17.580 216.964, 19.590 219.678 C 23.479 224.930, 25.920 225.500, 44.500 225.500 C 63.674 225.500, 66.524 224.673, 70.465 217.965 C 72.381 214.703, 72.519 212.561, 72.831 181.406 C 73.153 149.157, 72.518 140, 69.961 140 C 69.433 140, 69 139.325, 69 138.500 C 69 137.675, 68.662 136.998, 68.250 136.995 C 67.838 136.992, 66.214 135.961, 64.642 134.703 L 61.783 132.415 64.035 123.458 C 71.146 95.178, 90.658 71.187, 119.149 55.692 C 122.807 53.703, 131.216 50.284, 137.838 48.094 C 167.753 38.200, 203.026 39.424, 232.873 51.392 C 263.349 63.613, 289.209 92.281, 296.960 122.438 C 299.728 133.209, 299.627 134.624, 295.956 136.523 C 294.281 137.389, 292.033 139.538, 290.960 141.299 C 289.120 144.315, 289.007 146.551, 289.007 180 C 289.007 213.449, 289.120 215.685, 290.960 218.701 C 292.033 220.462, 294.281 222.611, 295.956 223.477 C 299.717 225.422, 299.745 226.753, 296.229 236.678 C 291.899 248.902, 286.682 257.210, 276.937 267.405 C 260.951 284.126, 243.402 293.934, 219.622 299.439 C 213.146 300.938, 212.665 300.928, 211.403 299.265 C 210.666 298.294, 210.049 297.140, 210.032 296.701 C 210.014 296.262, 208.088 295.034, 205.750 293.973 C 202.107 292.319, 199.131 292.041, 184.899 292.022 C 163.574 291.994, 158.219 293.729, 153.977 302.044 C 149.540 310.743, 152.584 322.218, 160.520 326.713 C 164.255 328.829, 165.654 328.968, 183.290 328.984 C 204.464 329.002, 207.963 328.116, 211.695 321.793 C 213.478 318.774, 214.257 318.402, 221.070 317.318 C 236.968 314.790, 258.030 305.810, 272.962 295.192 C 292.139 281.555, 308.442 259.039, 316.443 235.140 L 319.670 225.500 327.585 224.996 C 336.153 224.450, 338.719 223.444, 341.922 219.371 C 343.940 216.807, 344 215.671, 344 180.177 C 344 143.913, 343.982 143.598, 341.750 140.328 C 338.846 136.073, 338.126 135.799, 328 135.093 L 319.500 134.500 318.891 129 C 317.235 114.043, 307.784 91.638, 297.104 77.349 C 274.826 47.545, 244.977 29.710, 207 23.513 C 197.429 21.951, 175.063 20.797, 169.500 21.578" stroke="none" fill="#a40b12" fill-rule="evenodd"/></svg>